<?xml version="1.0" encoding="UTF-8"?>
<!DOCTYPE svg PUBLIC "-//W3C//DTD SVG 1.1//EN" "http://www.w3.org/Graphics/SVG/1.1/DTD/svg11.dtd">
<!-- Creator: CorelDRAW -->
<svg xmlns="http://www.w3.org/2000/svg" xml:space="preserve" width="2048px" height="2048px" style="shape-rendering:geometricPrecision; text-rendering:geometricPrecision; image-rendering:optimizeQuality; fill-rule:evenodd; clip-rule:evenodd"
viewBox="0 0 2048 2048"
 xmlns:xlink="http://www.w3.org/1999/xlink">
 <defs>
  <style type="text/css">
   <![CDATA[
    .fil2 {fill:none}
    .fil0 {fill:#424242}
    .fil1 {fill:#424242;fill-rule:nonzero}
   ]]>
  </style>
 </defs>
 <g id="Layer_x0020_1">
  <metadata id="CorelCorpID_0Corel-Layer"/>
  <g id="_341109128">
   <path id="_341110752" class="fil0" d="M441.64 1792l0 -292.079 472.845 0 0 292.079 -472.845 0zm0 -325.471l0 -342.356 472.845 0 0 342.356 -472.845 0zm0 -375.748l0 -144.299c0,-102.43 66.026,-190.175 157.615,-222.817l0 -467.666 157.616 0 0 467.666c91.5887,32.6422 157.615,120.41 157.615,222.817l0 144.299 -472.845 0z"/>
   <path id="_341109352" class="fil0" d="M1133.52 972.252l472.844 0 0 236.423c0,130.031 -106.389,236.421 -236.421,236.421l-0.00236221 0c-130.031,0 -236.42,-106.39 -236.42,-236.421l0 -236.423z"/>
   <g>
    <path id="_341107784" class="fil1" d="M1171.7 1760.01c3.17362,-5.11063 8.59961,-8.68465 14.915,-9.313 75.769,-26.6138 116.415,-21.5669 138.216,-94.2048 25.2095,-83.9871 25.2331,-244.941 25.2355,-245.378l0.00354331 -0.155906 0.00472441 -0.3 0.00708662 -0.194882 0.011811 -0.304725 0.0141732 -0.231496 0.0177165 -0.263386 0.022441 -0.271654 0.0212599 -0.222047 0.0283465 -0.253937 0.0295276 -0.265748 0.0330709 -0.236221 0.0354331 -0.245669 0.0437008 -0.266929 0.0366142 -0.217323 0.0472441 -0.257481 0.0519685 -0.257481 0.0366142 -0.178347 0.0696851 -0.308268 0.0448819 -0.187795 0.068504 -0.27874 0.0602363 -0.225591 0.0661418 -0.242126 0.068504 -0.233858 0.0708662 -0.231496 0.0767717 -0.240945 0.0755906 -0.227953 0.0744095 -0.217323 0.0874016 -0.245669 0.080315 -0.212599 0.0933072 -0.242126 0.100394 -0.248032 0.068504 -0.166536 0.146457 -0.337796 0.0401575 -0.0897638 0.161811 -0.351969 0.0448819 -0.0921261 0.133465 -0.275197 0.0992127 -0.196063 0.112205 -0.21378 0.111024 -0.207874 0.116929 -0.21378 0.115748 -0.204331 0.125197 -0.21378 0.11811 -0.199606 0.141732 -0.226772 0.111024 -0.174803 0.153543 -0.236221 0.0992127 -0.151181 0.172441 -0.250394 0.108662 -0.155906 0.13937 -0.193701 0.158268 -0.21378 0.131102 -0.17126 0.140551 -0.18189 0.191339 -0.239764 0.105118 -0.129921 0.177165 -0.211417 0.133465 -0.158268 0.183071 -0.206693 0.147638 -0.164173 0.138189 -0.15 0.186614 -0.198425 0.165354 -0.17126 0.164173 -0.166536 0.166536 -0.164173 0.170079 -0.165354 0.199606 -0.186614 0.148819 -0.138189 0.165354 -0.147638 0.207874 -0.18189 0.157087 -0.134646 0.211417 -0.175984 0.129921 -0.106299 0.239764 -0.19252 0.18189 -0.13937 0.17126 -0.131102 0.214961 -0.158268 0.19252 -0.13937 0.155906 -0.108662 0.250394 -0.172441 0.151181 -0.0992127 0.236221 -0.153543 0.173622 -0.111024 0.227953 -0.140551 0.199606 -0.120473 0.21378 -0.122835 0.204331 -0.116929 0.212599 -0.116929 0.209055 -0.112205 0.21378 -0.111024 0.196063 -0.0980316 0.275197 -0.135827 0.0933072 -0.0437008 0.350788 -0.161811 0.0897638 -0.0401575 0.337796 -0.146457 0.167717 -0.068504 0.245669 -0.100394 0.244488 -0.0933072 0.211417 -0.0791339 0.246851 -0.0885827 0.216142 -0.0744095 0.227953 -0.0755906 0.240945 -0.0767717 0.232677 -0.0696851 0.232677 -0.0696851 0.242126 -0.0661418 0.225591 -0.0602363 0.27874 -0.0696851 0.187795 -0.0448819 0.308268 -0.0673229 0.177165 -0.0377953 0.258662 -0.0507874 0.257481 -0.0484252 0.217323 -0.0366142 0.26811 -0.0437008 0.243307 -0.0354331 0.238583 -0.0330709 0.264567 -0.0307087 0.253937 -0.0271654 0.222047 -0.0212599 0.271654 -0.022441 0.263386 -0.0177165 0.231496 -0.0141732 0.304725 -0.0129921 0.193701 -0.00590552 0.301181 -0.00590552 0.155906 -0.00236221 0.0779528 0 0.0791339 0 0.154725 0.00236221 0.301181 0.00590552 0.194882 0.00590552 0.304725 0.0129921 0.230315 0.0141732 0.264567 0.0177165 0.271654 0.022441 0.222047 0.0212599 0.253937 0.0271654 0.264567 0.0307087 0.237402 0.0330709 0.244488 0.0354331 0.26811 0.0437008 0.217323 0.0366142 0.257481 0.0484252 0.257481 0.0507874 0.178347 0.0377953 0.307087 0.0673229 0.188977 0.0448819 0.27874 0.0696851 0.225591 0.0602363 0.240945 0.0661418 0.233858 0.0696851 0.232677 0.0696851 0.239764 0.0767717 0.227953 0.0755906 0.217323 0.0744095 0.246851 0.0885827 0.211417 0.0791339 0.243307 0.0933072 0.246851 0.100394 0.167717 0.068504 0.336614 0.146457 0.090945 0.0401575 0.350788 0.161811 0.0933072 0.0437008 0.275197 0.135827 0.196063 0.0980316 0.212599 0.111024 0.209055 0.112205 0.21378 0.116929 0.20315 0.116929 0.21378 0.122835 0.200788 0.120473 0.226772 0.140551 0.174803 0.111024 0.236221 0.153543 0.151181 0.0992127 0.250394 0.172441 0.155906 0.108662 0.19252 0.13937 0.214961 0.158268 0.17126 0.131102 0.180709 0.13937 0.239764 0.19252 0.129921 0.106299 0.212599 0.175984 0.157087 0.134646 0.206693 0.18189 0.165354 0.147638 0.15 0.138189 0.198425 0.186614 0.17126 0.165354 0.166536 0.164173 0.162992 0.166536 0.165354 0.17126 0.186614 0.198425 0.13937 0.15 0.146457 0.164173 0.183071 0.206693 0.134646 0.158268 0.175984 0.211417 0.106299 0.129921 0.191339 0.239764 0.13937 0.18189 0.132284 0.17126 0.158268 0.21378 0.138189 0.193701 0.109843 0.155906 0.172441 0.250394 0.0980316 0.151181 0.154725 0.236221 0.111024 0.174803 0.140551 0.226772 0.119291 0.199606 0.124016 0.21378 0.115748 0.204331 0.116929 0.21378 0.112205 0.207874 0.111024 0.21378 0.0992127 0.196063 0.134646 0.275197 0.0437008 0.0921261 0.162992 0.351969 0.0401575 0.0897638 0.146457 0.337796 0.0673229 0.166536 0.100394 0.248032 0.0944883 0.242126 0.0791339 0.212599 0.0874016 0.245669 0.0755906 0.217323 0.0744095 0.227953 0.0779528 0.240945 0.0696851 0.231496 0.068504 0.233858 0.0673229 0.242126 0.0602363 0.225591 0.068504 0.27874 0.0448819 0.187795 0.068504 0.308268 0.0377953 0.178347 0.0507874 0.257481 0.0484252 0.257481 0.0366142 0.217323 0.0437008 0.266929 0.0354331 0.245669 0.0318898 0.236221 0.0307087 0.265748 0.0283465 0.253937 0.0200788 0.222047 0.0236221 0.271654 0.0177165 0.263386 0.0129921 0.231496 0.0129921 0.304725 0.00708662 0.194882 0.00472441 0.3 0.00354331 0.155906c0.0011811,0.437008 0.0259843,161.391 25.2343,245.378 21.802,72.6379 62.4485,67.591 138.216,94.2048 6.31654,0.628347 11.7425,4.20237 14.9162,9.313l-198.251 0 -198.249 0z"/>
    <path id="_341108512" class="fil0" d="M1369.94 1732.12c109.707,0 198.643,13.4055 198.643,29.941 0,16.5354 -88.9359,29.941 -198.643,29.941 -109.707,0 -198.643,-13.4055 -198.643,-29.941 0,-16.5354 88.9359,-29.941 198.643,-29.941z"/>
   </g>
  </g>
 </g>
 <rect class="fil2" width="2048" height="2048"/>
</svg>
