<?xml version="1.0" encoding="iso-8859-1"?>
<!-- Uploaded to: SVG Repo, www.svgrepo.com, Generator: SVG Repo Mixer Tools -->
<svg height="800px" width="800px" version="1.1" id="Capa_1" xmlns="http://www.w3.org/2000/svg" xmlns:xlink="http://www.w3.org/1999/xlink" 
	 viewBox="0 0 485.772 485.772" xml:space="preserve">
<g>
	<g>
		<path style="fill:#ffffff;" d="M179.971,396.471c3.121,0.691,6.357,1.073,9.762,1.073c3.398,0,6.641-0.382,9.754-1.073
			c0.707-0.154,1.357-0.455,2.048-0.642l-1.309-9.21c-3.26,0.894-6.69,1.317-10.315,1.317c-14.875,0-26.938-6.869-35.806-25.93
			c-0.935-1.918-1.829-4.007-2.666-6.292c-10.933-27.922-16.558-70.068-16.761-131.09h41.935c0.528-3.365,1.691-6.495,3.381-9.283
			h-48.528h-5.836H3.296v3.438c0,112.483,17.338,169.505,54.331,177.691c3.121,0.691,6.357,1.073,9.762,1.073
			c3.398,0,6.641-0.382,9.754-1.073c28.336-6.275,45.097-41.318,51.413-107.874C134.865,355.154,151.635,390.196,179.971,396.471z
			 M105.708,355.641c-0.853,2.333-1.772,4.471-2.731,6.43c-8.868,19.021-20.549,25.865-35.408,25.865
			c-14.875,0-26.938-6.869-35.806-25.93c-0.935-1.918-1.829-4.007-2.666-6.292c-10.933-27.922-16.558-70.068-16.761-131.09h110.093
			C122.233,285.597,116.617,327.712,105.708,355.641z"/>
		<path style="fill:#ffffff;" d="M189.912,379.1c3.04,0,6.056-0.545,9.015-1.691l-12.185-85.87h-39.367
			C153.203,360.023,171.923,379.1,189.912,379.1z"/>
		<path style="fill:#ffffff;" d="M155.837,485.772h58.469l-2.073-14.623h-12.737v-66.711c-3.195,0.667-6.446,1-9.754,1
			c-3.308,0-6.568-0.341-9.754-1v66.711h-24.134c-3.325,0-6.023,2.048-6.023,4.576v5.462
			C149.814,483.723,152.504,485.772,155.837,485.772z"/>
		<path style="fill:#ffffff;" d="M67.569,379.1c17.989,0,35.408-17.029,42.537-87.561H25.032
			C30.86,360.023,49.588,379.1,67.569,379.1z"/>
		<path style="fill:#ffffff;" d="M67.39,405.437c-3.316,0-6.568-0.341-9.754-1v66.711H33.494c-3.325,0-6.023,2.048-6.023,4.576
			v5.462c0,2.528,2.699,4.576,6.023,4.576h66.248c3.325,0,6.023-2.048,6.023-4.576v-5.462c0-2.528-2.699-4.576-6.023-4.576H77.144
			v-66.711C73.95,405.096,70.698,405.437,67.39,405.437z"/>
		<path style="fill:#ffffff;" d="M433.371,199.085c0.593-2.934,0.935-5.861,1.138-8.771c0.041-0.658,0.098-1.325,0.114-1.983
			c0.398-10.071-1.471-19.834-5.243-28.702c-3.95-11.478-8.933-21.768-10.616-30.336c-3.463-17.606-1.04-30.889-1.04-30.889
			l9.827-47.243l-51.56-11.551l-9.884,47.487c0,0-3.089,14.843-16.314,27.084c-11.77,10.9-31.571,26.702-39.131,50.348
			c-0.813,2.447-1.536,4.95-2.081,7.543l-1.398,6.706l41.578,11.022l-2.146,9.283H433.371z"/>
		<path style="fill:#ffffff;" d="M385.152,349.342c1.146,0.813,2.3,1.609,3.471,2.374c1.211,0.788,2.439,1.561,3.682,2.292
			c14.054,8.299,30.035,13.014,47.642,13.014c5.365,0,10.884-0.439,16.55-1.349c0.602-0.098,1.187-0.138,1.748-0.138
			c0.862,0,1.674,0.106,2.463,0.276l16.639-108.695c-2.463,0.691-5.007,1.187-7.681,1.187h-40.293h-4.146h-4.154H290.649h-4.154
			h-4.146h-29.352h-9.039h-42.756c-2.43,0-4.755-0.398-7.007-0.967l4.853,34.205l11.014,77.62l1.626,11.469l1.414,9.957l5.21,36.741
			h232.973l6.186-40.383c-5.633,0.715-11.161,1.057-16.582,1.057c-25.979,0-49.479-7.99-69.296-22.329
			c-1.341-0.967-2.666-1.959-3.975-2.983c-1.268-0.992-2.512-2.024-3.747-3.073c-12.924-10.982-24.069-24.784-32.978-40.976
			c-25.873-1.162-25.556-42.854,1.057-42.854c18.46,0,24.28,20.069,17.493,32.774C358.84,325.192,370.887,339.189,385.152,349.342z"
			/>
		<polygon style="fill:#ffffff;" points="446.173,460.793 223.068,460.785 224.605,471.596 226.417,484.349 226.547,485.276 
			442.426,485.276 		"/>
		<path style="fill:#ffffff;" d="M438.313,215.342h-4.146h-4.154H299.591h-4.154h-4.154h-37.473h-52.6
			c-5.69,0-10.47,3.918-12.128,9.283c-0.398,1.292-0.675,2.642-0.675,4.064c0,4.414,2.089,8.307,5.267,10.738
			c2.122,1.618,4.706,2.609,7.535,2.609h43.301h9.006h32.214h4.154h4.154h130.423h4.154h4.146h36.912
			c2.821,0,5.414-0.992,7.535-2.609c3.178-2.43,5.267-6.324,5.267-10.738c0-7.356-5.747-13.355-12.802-13.355h-31.36V215.342z"/>
		<polygon style="fill:#ffffff;" points="389.29,0 385.298,27.97 384.721,32.002 384.551,33.197 424.885,42.228 425.364,40.911 
			426.762,37.058 436.143,11.201 		"/>
	</g>
</g>
</svg>