<svg width="199" height="251" viewBox="0 0 199 251" fill="none" xmlns="http://www.w3.org/2000/svg">
<ellipse cx="125" cy="68.5" rx="74" ry="68.5" fill="url(#paint0_linear_9_25)"/>
<path d="M185.222 61.5995L161.746 61.8018L157.015 57.6424L147.625 57.7233L128.773 49.4854L63.0425 50.0516C53.6525 50.1325 54.0143 92.131 63.4043 92.0501L129.135 91.4838L147.842 82.9223L157.232 82.8414L161.891 78.6011L185.366 78.3989L185.222 61.5995Z" fill="#5D95E3"/>
<path d="M187.383 65.991C187.331 64.1009 187.12 60.7946 186.927 58.7055C185.704 45.7144 182.316 34.0401 177.435 26.0055C177.16 25.5491 176.599 24.6771 176.189 24.0627C175.779 23.4541 174.346 21.2538 173 19.1764C171.654 17.099 170.437 15.2557 170.302 15.0802C168.903 13.2661 166.522 12.5463 164.351 13.2895C164.041 13.3948 163.567 13.6114 163.303 13.7694C162.162 14.4599 161.091 15.9462 160.652 17.456C160.512 17.9358 160.36 18.8721 160.407 18.9248C160.424 18.9365 160.617 18.8838 160.84 18.8078C161.413 18.5971 162.074 18.5093 162.443 18.5854C162.958 18.6966 163.344 18.9599 163.531 19.3227C163.631 19.51 168.915 27.6674 169.758 28.9256C170.53 30.0784 171.139 31.2956 171.414 32.2318L171.507 32.5303L171.191 32.9516C170.167 34.3092 169.079 35.2806 168.189 35.6259C167.704 35.8132 167.072 35.8132 166.68 35.62C166.329 35.4503 165.79 34.9295 165.357 34.3326C164.936 33.7533 164.801 33.5309 164.561 32.9926L164.362 32.5478L164.397 32.8404C164.55 33.9932 165.299 37.715 165.691 39.2482C165.942 40.2254 166.375 41.5187 166.58 41.9108C167.019 42.73 168.412 43.8302 170.542 45.059L171.303 45.4979L171.461 46.2235C172.309 50.0799 172.157 57.026 171.051 65.1717L170.887 66.3714L154.724 66.3889L138.562 66.4006L136.812 63.7732C134.922 60.9467 134.758 60.7419 134.038 60.3791C133.839 60.2796 133.529 60.1567 133.354 60.1099C132.932 59.9987 132.066 59.9987 131.627 60.1099C130.925 60.2972 130.246 60.7419 129.825 61.3037C129.679 61.5026 128.906 63.0183 127.911 65.0664C126.993 66.9565 126.232 68.5014 126.214 68.5014C126.197 68.5014 125.184 66.9975 123.961 65.16C121.322 61.1866 121.217 61.0462 120.813 60.7419C120.134 60.2269 119.532 60.0221 118.695 60.0221C117.741 60.0221 117.021 60.3206 116.354 60.9877C115.868 61.4675 115.915 61.3798 113.896 65.5521C113.136 67.1321 112.492 68.4371 112.468 68.4605C112.445 68.4839 111.351 66.8922 110.034 64.9201C107.43 61.0345 107.208 60.7478 106.494 60.3849C105.967 60.1216 105.557 60.0221 104.949 60.0221C103.966 60.0221 103.264 60.3089 102.561 61.0111C102.064 61.5085 102.216 61.2218 99.5593 66.7049C99.0795 67.6939 98.664 68.4897 98.6406 68.4722C98.6113 68.4546 98.2661 67.9514 97.8623 67.3486C97.0547 66.1256 96.6802 65.6633 96.1653 65.2303C94.2108 63.5742 91.7237 63.2231 89.1782 64.2296C88.2126 64.6158 87.6684 65.0079 86.8784 65.9032C85.9363 66.9624 85.0995 68.3376 85.0293 68.9462L85 69.2095L85.5091 68.9696C86.1645 68.6653 87.2588 68.3083 87.9201 68.1854C88.9792 67.9865 90.0677 68.1094 90.5124 68.478C90.606 68.5599 90.8635 68.9052 91.0859 69.2446C91.3024 69.5899 92.6132 71.5678 93.9942 73.651C95.7615 76.3077 96.5983 77.5191 96.8207 77.7297C97.1893 78.0867 97.7745 78.4086 98.3012 78.5431C98.8337 78.6836 99.7758 78.6368 100.262 78.4554C100.952 78.1979 101.625 77.6478 102.005 77.0392C102.058 76.9515 102.83 75.3832 103.72 73.5574C104.604 71.7316 105.353 70.216 105.376 70.1867C105.399 70.1633 106.511 71.7843 107.851 73.7915C109.853 76.7935 110.35 77.4957 110.643 77.7649C111.041 78.1218 111.567 78.4144 112.053 78.5431C112.463 78.6543 113.335 78.6543 113.75 78.5431C114.517 78.3383 115.271 77.8 115.699 77.1504C115.81 76.9807 116.547 75.5178 117.331 73.8909C118.121 72.2641 118.859 70.7544 118.97 70.532L119.175 70.1282L121.597 73.7447C122.931 75.7284 124.108 77.4547 124.213 77.5776C124.459 77.8702 125.091 78.2857 125.541 78.4554C126.021 78.6368 126.975 78.6836 127.49 78.549C128.303 78.3442 128.994 77.8585 129.433 77.1972C129.585 76.9749 130.428 75.2954 131.311 73.4696C132.195 71.6439 132.932 70.1516 132.95 70.1458C132.967 70.1458 133.26 70.5671 133.605 71.0762C133.962 71.6029 134.354 72.112 134.506 72.2524C134.84 72.545 135.372 72.8493 135.811 72.9956C136.121 73.0951 136.911 73.101 156.398 73.1185L176.657 73.1302V73.4989C176.657 74.0021 176.558 75.8981 176.452 77.3728C175.528 90.4106 172.256 102.05 167.517 109.136C166.639 110.447 166.334 111.144 166.182 112.203C166.048 113.133 166.288 114.403 166.773 115.31C167.628 116.914 168.997 117.879 170.776 118.131C172.444 118.365 174.275 117.709 175.411 116.469C175.949 115.884 177.289 113.8 178.319 111.957C178.951 110.833 180.11 108.434 180.712 107.012C184.61 97.8424 186.892 86.5016 187.366 73.9787C187.419 72.5918 187.43 67.5476 187.383 65.991ZM172.941 112.928C172.812 113.303 172.549 113.59 172.175 113.777C171.589 114.064 170.905 113.906 170.413 113.373C169.875 112.788 169.939 111.893 170.559 111.331C170.788 111.126 171.256 110.933 171.537 110.933C171.87 110.933 172.286 111.126 172.567 111.401C172.988 111.822 173.128 112.384 172.941 112.928Z" fill="#821B27"/>
<defs>
<linearGradient id="paint0_linear_9_25" x1="111" y1="34" x2="24" y2="40" gradientUnits="userSpaceOnUse">
<stop stop-color="#F1F1F1"/>
<stop offset="1" stop-color="#1A3D6E"/>
</linearGradient>
</defs>
</svg>
