<?xml version="1.0" encoding="iso-8859-1"?>
<!-- Generator: Adobe Illustrator 19.0.1, SVG Export Plug-In . SVG Version: 6.00 Build 0)  -->
<svg version="1.1" xmlns="http://www.w3.org/2000/svg" xmlns:xlink="http://www.w3.org/1999/xlink" x="0px" y="0px"
	 viewBox="0 0 128 128" style="enable-background:new 0 0 128 128;" xml:space="preserve">
<g id="_x33_">
	<path id="icon_2_" style="fill:#ffffff;" d="M77.43,116.2H50.586c-3.036,0-5.507-2.469-5.507-5.505c0-3.036,2.47-5.506,5.507-5.506
		H77.43c3.036,0,5.507,2.47,5.507,5.506C82.937,113.73,80.466,116.2,77.43,116.2z M50.586,108.331c-1.304,0-2.364,1.06-2.364,2.364
		c0,1.303,1.06,2.363,2.364,2.363H77.43c1.304,0,2.364-1.06,2.364-2.363c0-1.303-1.06-2.364-2.364-2.364H50.586z M77.43,86.306
		H50.586c-3.036,0-5.507-2.47-5.507-5.506s2.47-5.506,5.507-5.506H77.43c3.036,0,5.507,2.47,5.507,5.506S80.466,86.306,77.43,86.306
		z M50.586,78.436c-1.304,0-2.364,1.06-2.364,2.364c0,1.303,1.06,2.364,2.364,2.364H77.43c1.304,0,2.364-1.06,2.364-2.364
		c0-1.303-1.06-2.364-2.364-2.364H50.586z M113.491,72.131c0-4.211-3.032-7.746-7.039-8.484c-0.676-6.332-3.174-12.396-7.18-17.408
		l-0.126-0.173c-4.101-5.122-6.363-11.564-6.363-18.115V5.138C92.783,2.31,90.474,0,87.646,0h-6.944
		c-2.828,0-5.138,2.31-5.138,5.138V27.95c0,6.567-2.262,12.993-6.363,18.131l-0.141,0.173c-2.137,2.671-3.834,5.625-5.043,8.767
		c-1.241-3.142-2.938-6.096-5.059-8.767l-0.141-0.189c-4.101-5.122-6.363-11.548-6.363-18.115V5.138C52.452,2.31,50.143,0,47.315,0
		H40.37c-2.828,0-5.138,2.31-5.138,5.138V27.95c0,6.552-2.262,12.993-6.363,18.131l-0.141,0.173
		c-3.991,4.996-6.489,11.061-7.18,17.392c-3.991,0.738-7.039,4.274-7.039,8.484v17.33c0,2.467,1.053,4.713,2.718,6.285
		c-1.665,1.571-2.718,3.818-2.718,6.285v17.33c0,4.761,3.881,8.641,8.641,8.641h81.699c4.776,0,8.641-3.881,8.641-8.641v-17.33
		c0-2.467-1.037-4.713-2.718-6.285c1.681-1.571,2.718-3.818,2.718-6.285V72.131z M80.277,5.138c0-0.236,0.189-0.424,0.424-0.424
		h6.944c0.236,0,0.424,0.189,0.424,0.424v15.24h-7.793V5.138z M80.277,27.95v-2.859h7.793v2.859c0,7.102,2.278,14.109,6.473,19.843
		H73.82C77.999,42.059,80.277,35.052,80.277,27.95z M68.933,55.445c0.031-0.063,0.063-0.141,0.094-0.22
		c0.927-1.712,1.822-3.237,2.498-4.289h24.761c0.927,1.021,1.775,2.09,2.498,3.221c0.016,0,0.016,0.016,0.016,0.016
		c1.477,2.907,2.467,6.065,2.891,9.317H66.655C67.017,60.708,67.786,58.006,68.933,55.445z M39.946,5.138
		c0-0.236,0.189-0.424,0.424-0.424h6.944c0.236,0,0.424,0.189,0.424,0.424v15.24h-7.793V5.138z M39.946,27.95v-2.859h7.793v2.859
		c0,7.102,2.278,14.109,6.457,19.843H33.489C37.668,42.059,39.946,35.052,39.946,27.95z M27.55,58.226
		c0-0.031,0.016-0.047,0.016-0.063c1.336-2.859,2.922-5.593,3.959-7.227h24.761c0.361,0.393,0.707,0.801,1.053,1.21
		c0.016,0.016,0.031,0.047,0.031,0.063c2.105,3.441,3.472,7.29,3.991,11.281H26.324C26.56,61.698,26.968,59.939,27.55,58.226z
		 M108.777,119.359c0,2.168-1.76,3.928-3.928,3.928H23.151c-2.152,0-3.928-1.76-3.928-3.928v-17.33c0-2.168,1.775-3.928,3.928-3.928
		h81.699c2.168,0,3.928,1.76,3.928,3.928V119.359z M108.777,89.46c0,2.168-1.76,3.928-3.928,3.928H23.151
		c-2.152,0-3.928-1.76-3.928-3.928v-17.33c0-2.152,1.775-3.928,3.928-3.928h81.699c2.168,0,3.928,1.775,3.928,3.928V89.46z"/>
</g>
<g id="Layer_1">
</g>
</svg>
