<?xml version="1.0" encoding="UTF-8"?>
<!DOCTYPE svg PUBLIC "-//W3C//DTD SVG 1.1//EN" "http://www.w3.org/Graphics/SVG/1.1/DTD/svg11.dtd">
<!-- Creator: CorelDRAW -->
<svg xmlns="http://www.w3.org/2000/svg" xml:space="preserve" width="6.82666in" height="6.82666in" style="shape-rendering:geometricPrecision; text-rendering:geometricPrecision; image-rendering:optimizeQuality; fill-rule:evenodd; clip-rule:evenodd"
viewBox="0 0 6.82666 6.82666"
 xmlns:xlink="http://www.w3.org/1999/xlink">
 <defs>
  <style type="text/css">
   <![CDATA[
    .fil1 {fill:none}
    .fil0 {fill:#ffffff;fill-rule:nonzero}
   ]]>
  </style>
 </defs>
 <g id="Layer_x0020_1">
  <metadata id="CorelCorpID_0Corel-Layer"/>
  <g id="_555607904">
   <path id="_555607544" class="fil0" d="M5.38188 5.47113c-0.0489055,-0.178587 -0.213307,-0.355583 -0.419402,-0.512835 -0.405717,-0.309575 -0.958516,-0.531638 -1.16499,-0.564484 -0.200413,-0.0318661 -0.202902,-0.424862 -0.202913,-0.425988l-0.000614173 -0.0452244 0.0314488 -0.0314449c0.000862205,-0.000862205 0.301634,-0.298614 0.366898,-0.697228l0.0146654 -0.0895866 0.0903346 0c0.00964173,0 0.0220906,-0.00961024 0.0353346,-0.0252087 0.0210354,-0.0247677 0.0387874,-0.0597362 0.0516693,-0.0998228 0.0136102,-0.0423583 0.021252,-0.0897953 0.021252,-0.136953 0,-0.0712441 -0.0175315,-0.137488 -0.059185,-0.172862l-0.0399252 -0.0339055 0.0024252 -0.0519291c0.000905512,-0.0194094 0.00332677,-0.0419213 0.00640157,-0.0705 0.00687008,-0.0639094 0.0173031,-0.160894 0.0173031,-0.274677l0.000417323 0c0,-0.359307 -0.114953,-0.882945 -0.87415,-0.882945 -0.758831,0 -0.873717,0.523634 -0.873717,0.882949 0,0.11376 0.0104291,0.210728 0.0172953,0.274638 0.0030748,0.0285945 0.00549606,0.051122 0.00640157,0.0705354l0.0024252 0.0519291 -0.0399252 0.0339055c-0.0416535,0.035374 -0.059185,0.101618 -0.059185,0.172858 0,0.0471614 0.0076378,0.0945984 0.021248,0.136953 0.0128819,0.0400906 0.0306378,0.0750591 0.0516693,0.0998228 0.013248,0.0155984 0.0257008,0.0252126 0.0353504,0.0252126l0.0903346 0 0.0146654 0.0895866c0.0652638,0.398614 0.366024,0.696366 0.366886,0.697228l0.0314488 0.0314449 -0.000614173 0.0452244c-1.1811e-005,0.00112598 -0.00249213,0.394122 -0.202909,0.425988 -0.206469,0.0328465 -0.759276,0.254913 -1.165,0.564488 -0.206091,0.157252 -0.370488,0.334244 -0.419398,0.512831l4.24606 0zm-0.290236 -0.682c0.295,0.225091 0.518492,0.496689 0.518492,0.788669l0 0.106669 -0.106669 0 -4.48923 0 -0.106669 0 0 -0.106669c0,-0.291984 0.223492,-0.563575 0.518488,-0.788665 0.43311,-0.330472 1.03381,-0.569205 1.26083,-0.605323 0.0151142,-0.00240157 0.020748,-0.112862 0.0227323,-0.175776 -0.0823898,-0.0916772 -0.30176,-0.361118 -0.380413,-0.709343 -0.0398583,-0.017252 -0.0756535,-0.045563 -0.106654,-0.082063 -0.0389646,-0.0458819 -0.0703937,-0.106118 -0.0916693,-0.172327 -0.0205512,-0.0639488 -0.0320827,-0.133957 -0.0320827,-0.201953 0,-0.107638 0.028185,-0.213976 0.0934173,-0.293091l-0.00146457 -0.0136339c-0.0075315,-0.0700787 -0.0189646,-0.176406 -0.0189646,-0.297142 0,-0.44613 0.142941,-1.09629 1.08706,-1.09629 0.943756,0 1.08665,0.650161 1.08665,1.09628l0.000417323 0c0,0.120764 -0.011437,0.227106 -0.0189724,0.297181l-0.00146063 0.0136024c0.0652323,0.0791102 0.0934134,0.185449 0.0934134,0.293091 0,0.0679921 -0.0115354,0.138004 -0.0320866,0.201953 -0.0212795,0.0662126 -0.0527008,0.126445 -0.0916693,0.172327 -0.0309921,0.0364961 -0.0667835,0.0648071 -0.106638,0.0820591 -0.0786496,0.348224 -0.298024,0.617673 -0.380425,0.709343 0.00198819,0.0629134 0.00762205,0.173374 0.0227362,0.175776 0.227028,0.0361181 0.827728,0.274854 1.26083,0.605319z"/>
   <polygon id="_555607808" class="fil0" points="5.26206,3.28189 5.76218,4.26706 5.57218,4.3629 5.07206,3.37772 "/>
   <path id="_555607928" class="fil0" d="M4.84906 2.42752l1.02837 0.792469 0.226398 0.174469 -0.285563 0.0159488 -0.583854 0.0326102 -0.38772 0.43726 -0.189567 0.213783 0.00373228 -0.285453 0.0169567 -1.29817 0.00277559 -0.21274 0.168476 0.129827zm0.671965 0.786331l-0.633492 -0.488173 -0.0104488 0.79998 0.227744 -0.256843 0.0295866 -0.0333661 0.0441614 -0.0024685 0.342449 -0.0191299z"/>
  </g>
 </g>
 <rect class="fil1" width="6.82666" height="6.82666"/>
</svg>
