<svg width="125" height="120" viewBox="0 0 125 120" fill="none" xmlns="http://www.w3.org/2000/svg">
<path d="M122.685 60.4551C122.685 92.0984 95.7589 117.91 62.3423 117.91C28.9257 117.91 2 92.0984 2 60.4551C2 28.8118 28.9257 3 62.3423 3C95.7589 3 122.685 28.8118 122.685 60.4551Z" fill="#722F37" stroke="#1A3D6E" stroke-width="4"/>
<path d="M62.0079 112.921C92.388 112.921 117.016 89.4335 117.016 60.4604C117.016 31.4873 92.388 8 62.0079 8C31.6279 8 7 31.4873 7 60.4604C7 89.4335 31.6279 112.921 62.0079 112.921Z" stroke="#F1F1F1" stroke-width="1.34359" stroke-dasharray="2.02 2.02"/>
<path d="M56 5V24.0909L50.4 27.9091V35.5455L43 50.8182V104.273C43 111.909 80 111.909 80 104.273V50.8182L72.6 35.5455V27.9091L67 24.0909V5H56Z" fill="#1A3D6E"/>
<path d="M56 1.55172V4.92983L67 5V1.55172C67 -0.517241 56 -0.517241 56 1.55172Z" fill="#FFB700"/>
<path opacity="0.1" d="M75.294 60C64.635 60.6973 58.6233 60.6795 48 60V89.8957C58.4521 93.0783 64.2901 93.0637 75.294 89.8957V60Z" fill="#F1F1F1"/>
<path opacity="0.2" d="M51.2753 33V48.618L48 54.8652V104.843C48 107.966 54.5506 107.966 54.5506 104.843V33" fill="#F1F1F1"/>
<path d="M9.04442 61.1281C10.8676 60.3424 12.2931 59.7062 13.321 59.2198C14.8153 58.5126 16.1334 57.8503 17.2752 57.2329C17.3794 57.3377 17.4451 57.4125 17.4723 57.4574C17.5221 57.5397 17.563 57.6407 17.5948 57.7603C16.5693 58.2842 15.907 58.6939 15.6079 58.9894C15.3122 59.2738 15.2505 59.5581 15.4228 59.8424C15.4273 59.8498 15.596 60.0107 15.9288 60.3248L27.4316 68.8297L27.5502 68.7736L25.5181 55.599C25.4976 55.4644 25.4329 55.3073 25.3241 55.1277C25.1745 54.8808 24.9256 54.7724 24.5775 54.8024C24.2294 54.8323 23.6848 54.9746 22.9437 55.229C22.8123 55.0794 22.7353 54.9859 22.7126 54.9485C22.6764 54.8887 22.6468 54.8064 22.6241 54.7016C23.6712 54.2638 24.6059 53.8504 25.4282 53.4612C26.3296 53.0346 27.2173 52.5856 28.0915 52.1142C28.1775 52.189 28.2387 52.2563 28.2749 52.3162C28.3475 52.4359 28.3929 52.5443 28.4111 52.6416C27.8498 52.9746 27.426 53.3244 27.1394 53.691C26.8563 54.0464 26.7349 54.4841 26.7753 55.0041L29.485 73.0995L28.9276 73.3633L12.9994 61.7112C12.1597 61.0978 10.9479 61.0793 9.36403 61.6555C9.25081 61.5359 9.17832 61.4498 9.14659 61.3975C9.10125 61.3227 9.0672 61.2329 9.04442 61.1281Z" fill="#FFB700"/>
<path d="M39.0619 49.691C41.0062 49.4138 42.5122 49.1795 43.5799 48.9882C44.6476 48.797 46.1379 48.4945 48.051 48.0808C48.1167 48.211 48.1555 48.3017 48.1672 48.3529C48.1887 48.4467 48.1959 48.5563 48.1889 48.6819C47.8006 48.7869 47.4865 48.8831 47.2466 48.9705C47.0134 49.0478 46.7257 49.1614 46.3836 49.3115C46.0501 49.46 45.8073 49.6322 45.655 49.8281C45.5008 50.0155 45.4448 50.2208 45.487 50.444C46.0401 53.3629 46.6031 56.0714 47.1761 58.5694C47.5946 60.394 48.1867 62.76 48.9522 65.6674C49.0117 65.8875 49.1547 66.0616 49.3813 66.1897C49.6059 66.3092 49.9045 66.38 50.2771 66.402C50.6583 66.4225 50.9743 66.4324 51.2252 66.4319C51.4827 66.4212 51.8134 66.3975 52.2173 66.3607C52.2752 66.4568 52.3188 66.5688 52.3482 66.6967C52.3638 66.7649 52.3662 66.8533 52.3552 66.9617C50.8797 67.1728 49.3756 67.4156 47.843 67.6901C46.2932 67.9678 44.8008 68.2617 43.3661 68.572C43.3081 68.4759 43.2714 68.3937 43.2557 68.3255C43.2225 68.1805 43.2133 68.0624 43.2282 67.9709C43.4806 67.8991 43.6824 67.8407 43.8334 67.7959C43.9845 67.7511 44.1886 67.6835 44.4458 67.593C44.7115 67.5011 44.9203 67.4148 45.0722 67.3344C45.2307 67.2438 45.3906 67.1397 45.5518 67.0221C45.7131 66.9045 45.8231 66.7782 45.8818 66.6434C45.9491 66.5071 45.9652 66.3622 45.93 66.2088C45.4212 63.5216 44.8558 60.8225 44.2339 58.1112C43.6002 55.3488 43.0105 52.9736 42.4648 50.9854C42.4054 50.7653 42.2633 50.5954 42.0387 50.4759C41.8121 50.3479 41.5082 50.2736 41.127 50.2531C40.7545 50.2311 40.4394 50.2254 40.1819 50.236C39.931 50.2366 39.6036 50.2553 39.1997 50.2921C39.1301 50.1448 39.0884 50.0413 39.0747 49.9817C39.0552 49.8964 39.0509 49.7995 39.0619 49.691Z" fill="#FFB700"/>
<path d="M61.6428 46.7533C63.0639 46.9495 64.8635 47.1442 67.0418 47.3373C72.3277 55.5842 75.1729 59.9802 75.5775 60.5252C75.983 61.0616 76.1858 61.3297 76.1858 61.3297L76.2903 61.339C76.5147 59.6733 76.6846 58.332 76.8 57.3151C77.028 55.3074 77.2523 52.9438 77.4731 50.2243C77.5445 49.4406 76.6316 48.8768 74.7344 48.533C74.7213 48.3387 74.7172 48.2198 74.7221 48.1763C74.73 48.1068 74.7573 48.0214 74.804 47.9202C76.2009 48.0968 77.4396 48.2329 78.52 48.3287C79.2171 48.3905 80.3876 48.468 82.0316 48.5611C82.0546 48.6685 82.0621 48.7569 82.0542 48.8264C82.0385 48.9655 82.0077 49.0813 81.962 49.1738C80.0341 49.1785 79.017 49.5711 78.9108 50.3518C78.4973 53.063 78.1406 55.7397 77.8406 58.3819C77.3817 62.4234 77.0799 65.4693 76.9351 67.5195L76.6969 67.5247L65.516 50.4283L65.3853 50.4167C65.0774 52.6632 64.7932 54.9337 64.5327 57.2283C64.3037 59.2447 64.0799 61.6039 63.8611 64.306C63.7887 65.0985 64.6967 65.6662 66.5852 66.0093C66.612 66.1609 66.6204 66.2801 66.6106 66.3671C66.6007 66.454 66.569 66.539 66.5156 66.622C65.1361 66.447 63.9018 66.3113 62.8127 66.2147C62.1156 66.1529 60.9451 66.0754 59.3011 65.9823C59.2674 65.8916 59.2555 65.8027 59.2654 65.7158C59.2822 65.568 59.3173 65.4526 59.3707 65.3696C61.317 65.3578 62.3346 64.9608 62.4234 64.1786C62.8359 61.4761 63.1921 58.8037 63.4921 56.1615C63.8177 53.2933 64.0656 50.8001 64.2357 48.6819C63.5758 47.9826 62.6883 47.5439 61.5732 47.366C61.5338 47.2484 61.519 47.1461 61.5289 47.0592C61.5437 46.9289 61.5816 46.8269 61.6428 46.7533Z" fill="#FFB700"/>
<path d="M105.59 55.9052C106.204 56.1838 106.813 56.5375 107.42 56.966C108.034 57.3983 108.591 57.9044 109.089 58.4845C109.599 59.0607 110.025 59.7131 110.367 60.4418C110.72 61.1665 110.939 61.9589 111.022 62.819C111.106 63.6791 111.03 64.6054 110.795 65.5979C110.567 66.594 110.126 67.6553 109.471 68.7818C108.811 69.9158 108.09 70.8598 107.309 71.6138C106.532 72.3601 105.724 72.9535 104.883 73.3937C104.048 73.8265 103.193 74.1265 102.32 74.2939C101.46 74.4573 100.612 74.5213 99.7769 74.4859C98.9539 74.4465 98.1591 74.3243 97.3923 74.1192C96.6211 73.9217 95.917 73.6781 95.2799 73.3886C94.6747 73.1136 94.0648 72.7599 93.4503 72.3277C92.8394 71.9067 92.2765 71.4119 91.7616 70.8433C91.251 70.2671 90.8167 69.6204 90.4587 68.9032C90.1131 68.1821 89.8923 67.3935 89.7965 66.5373C89.713 65.6773 89.7848 64.7492 90.0121 63.7531C90.2517 62.753 90.7015 61.686 91.3614 60.5519C92.039 59.3876 92.7785 58.4284 93.58 57.6741C94.3858 56.9123 95.2129 56.313 96.0611 55.8764C96.9173 55.4433 97.7814 55.1525 98.6533 55.0038C99.5376 54.8513 100.391 54.7947 101.214 54.8341C102.045 54.8771 102.83 54.9995 103.568 55.2013C104.319 55.3991 104.993 55.6337 105.59 55.9052ZM105.056 56.6945C104.307 56.3543 103.574 56.1693 102.856 56.1395C102.138 56.1097 101.444 56.1956 100.773 56.3972C100.106 56.5913 99.4672 56.8842 98.8566 57.2759C98.2504 57.66 97.6802 58.1035 97.1459 58.6064C96.6195 59.1128 96.1322 59.6561 95.6838 60.2362C95.2434 60.82 94.8538 61.4029 94.515 61.9851C94.1894 62.5446 93.8905 63.1448 93.6181 63.7858C93.3458 64.4268 93.1296 65.0838 92.9696 65.7567C92.8139 66.4221 92.7295 67.0864 92.7161 67.7495C92.7108 68.4162 92.8105 69.0495 93.0153 69.6492C93.2201 70.249 93.5428 70.8019 93.9833 71.308C94.4362 71.8102 95.0449 72.235 95.8094 72.5825C96.558 72.9227 97.289 73.1115 98.0023 73.1488C98.72 73.1787 99.4123 73.0965 100.079 72.9025C100.75 72.7008 101.385 72.4061 101.983 72.0184C102.594 71.6267 103.16 71.1814 103.682 70.6825C104.216 70.1796 104.701 69.6401 105.137 69.0639C105.581 68.4913 105.971 67.9178 106.305 67.3432C106.644 66.761 106.95 66.1401 107.223 65.4803C107.504 64.8242 107.721 64.1579 107.873 63.4813C108.033 62.8084 108.113 62.1423 108.114 61.4831C108.12 60.8164 108.018 60.1869 107.808 59.5947C107.604 58.995 107.279 58.4458 106.834 57.9472C106.389 57.4487 105.796 57.0311 105.056 56.6945Z" fill="#FFB700"/>
</svg>
