<svg width="75" height="23" viewBox="0 0 75 23" fill="none" xmlns="http://www.w3.org/2000/svg">
<path d="M68 9L56.5 7.5L54 4H49L39 0.5H4C-1 0.5 -1 23 4 23H39L49 19H54L56.5 15.5L68 13.5V9Z" fill="#7B0323"/>
<path opacity="0.1" d="M40 21C39.4893 13.9706 39.5023 10.0059 40 3H4.74414C2.41328 9.89302 2.42397 13.7431 4.74414 21H40Z" fill="white"/>
<path d="M71 9H68V13.5H71C72.5 13 72.5 9 71 9Z" fill="#DDDDDD"/>
<path opacity="0.2" d="M62.375 9.5H49.875L44.875 7H4.875C2.375 7 2.375 12 4.875 12H62.375" fill="#310511" fill-opacity="0.66"/>
<path d="M33.4846 10.0166C33.7924 10.0166 34.1162 10.0486 34.456 10.1125C34.7998 10.1765 35.1376 10.2824 35.4694 10.4304C35.8052 10.5743 36.1251 10.7662 36.4288 11.006C36.7367 11.2419 37.0066 11.5318 37.2384 11.8755C37.4703 12.2193 37.6542 12.6211 37.7901 13.0808C37.93 13.5406 38 14.0683 38 14.6639C38 15.2636 37.932 15.7953 37.7961 16.259C37.6602 16.7187 37.4763 17.1206 37.2444 17.4643C37.0125 17.8042 36.7427 18.092 36.4349 18.3279C36.131 18.5597 35.8093 18.7476 35.4694 18.8915C35.1336 19.0314 34.7898 19.1314 34.438 19.1913C34.0862 19.2553 33.7504 19.2873 33.4306 19.2873C33.1267 19.2873 32.803 19.2553 32.4592 19.1913C32.1194 19.1314 31.7815 19.0314 31.4458 18.8915C31.11 18.7476 30.7881 18.5597 30.4803 18.3279C30.1764 18.092 29.9066 17.8042 29.6707 17.4643C29.4389 17.1206 29.253 16.7187 29.1131 16.259C28.9772 15.7953 28.9092 15.2636 28.9092 14.6639C28.9092 14.0483 28.9811 13.5066 29.1251 13.0389C29.269 12.5671 29.4589 12.1594 29.6948 11.8155C29.9346 11.4718 30.2105 11.186 30.5222 10.9581C30.8381 10.7262 31.1639 10.5403 31.4997 10.4004C31.8395 10.2605 32.1793 10.1625 32.5191 10.1066C32.8629 10.0466 33.1847 10.0166 33.4846 10.0166ZM33.4546 10.4484C33.0788 10.4484 32.745 10.5103 32.4531 10.6342C32.1613 10.7582 31.9055 10.9261 31.6856 11.138C31.4658 11.3458 31.2799 11.5897 31.1279 11.8696C30.976 12.1454 30.8521 12.4392 30.7561 12.751C30.6642 13.0628 30.5963 13.3827 30.5522 13.7105C30.5123 14.0383 30.4923 14.3561 30.4923 14.6639C30.4923 14.9597 30.5123 15.2676 30.5522 15.5874C30.5922 15.9072 30.6582 16.223 30.7501 16.5348C30.8421 16.8427 30.962 17.1365 31.11 17.4164C31.2618 17.6962 31.4478 17.9421 31.6676 18.1539C31.8875 18.3658 32.1433 18.5357 32.4352 18.6637C32.731 18.7875 33.0708 18.8495 33.4546 18.8495C33.8304 18.8495 34.1641 18.7895 34.456 18.6696C34.7478 18.5457 35.0037 18.3798 35.2235 18.1719C35.4435 17.96 35.6273 17.7162 35.7752 17.4403C35.9272 17.1605 36.0491 16.8667 36.141 16.5589C36.237 16.247 36.305 15.9292 36.3449 15.6054C36.3889 15.2816 36.4108 14.9678 36.4108 14.6639C36.4108 14.3561 36.3889 14.0383 36.3449 13.7105C36.305 13.3827 36.237 13.0628 36.141 12.751C36.0491 12.4392 35.9272 12.1454 35.7752 11.8696C35.6234 11.5897 35.4374 11.3458 35.2176 11.138C34.9977 10.9261 34.7419 10.7582 34.45 10.6342C34.1582 10.5103 33.8263 10.4484 33.4546 10.4484Z" fill="#DDDDDD"/>
<path d="M20.4189 10.1045C21.0062 10.1331 21.7474 10.1475 22.6426 10.1475C25.1742 13.32 26.5348 15.0101 26.7246 15.2178C26.9144 15.4219 27.0093 15.5239 27.0093 15.5239H27.0522C27.0666 14.8364 27.0737 14.2832 27.0737 13.8643C27.0737 13.0371 27.0558 12.0649 27.02 10.9478C27.0129 10.6255 26.6154 10.4285 25.8276 10.3569C25.8133 10.2782 25.8062 10.2298 25.8062 10.2119C25.8062 10.1833 25.8133 10.1475 25.8276 10.1045C26.4041 10.126 26.9144 10.1367 27.3584 10.1367C27.6449 10.1367 28.1247 10.126 28.7979 10.1045C28.8122 10.1475 28.8193 10.1833 28.8193 10.2119C28.8193 10.2692 28.8122 10.3175 28.7979 10.3569C28.0137 10.4285 27.618 10.6255 27.6108 10.9478C27.5679 12.0685 27.5464 13.1732 27.5464 14.2617C27.5464 15.9268 27.5643 17.18 27.6001 18.0215L27.5034 18.0322L22.1646 11.4634H22.1108C22.0894 12.3908 22.0786 13.3271 22.0786 14.2725C22.0786 15.1032 22.0965 16.0736 22.1323 17.1836C22.1395 17.5094 22.5352 17.7082 23.3193 17.7798C23.3372 17.8407 23.3462 17.889 23.3462 17.9248C23.3462 17.9606 23.3372 17.9964 23.3193 18.0322C22.75 18.0107 22.2415 18 21.7939 18C21.5075 18 21.0277 18.0107 20.3545 18.0322C20.3366 17.9964 20.3276 17.9606 20.3276 17.9248C20.3276 17.8639 20.3366 17.8156 20.3545 17.7798C21.1458 17.7046 21.5415 17.5059 21.5415 17.1836C21.5845 16.0664 21.606 14.9635 21.606 13.875C21.606 12.6934 21.5916 11.6675 21.563 10.7974C21.2622 10.536 20.8809 10.3892 20.4189 10.3569C20.3975 10.3104 20.3867 10.2692 20.3867 10.2334C20.3867 10.1797 20.3975 10.1367 20.4189 10.1045Z" fill="#DDDDDD"/>
<path d="M15.457 9.38672C16.332 9.41797 17.0117 9.43359 17.4961 9.43359C17.9805 9.43359 18.6602 9.41797 19.5352 9.38672C19.5508 9.44922 19.5586 9.49219 19.5586 9.51562C19.5586 9.55859 19.5508 9.60742 19.5352 9.66211C19.3555 9.67773 19.209 9.69531 19.0957 9.71484C18.9863 9.73047 18.8496 9.75781 18.6855 9.79688C18.5254 9.83594 18.4023 9.89258 18.3164 9.9668C18.2305 10.0371 18.1855 10.123 18.1816 10.2246C18.1309 11.5527 18.1055 12.7891 18.1055 13.9336C18.1055 14.7695 18.127 15.8574 18.1699 17.1973C18.1738 17.2988 18.2188 17.3867 18.3047 17.4609C18.3906 17.5312 18.5137 17.5859 18.6738 17.625C18.8379 17.6641 18.9746 17.6934 19.084 17.7129C19.1973 17.7285 19.3438 17.7441 19.5234 17.7598C19.5391 17.8066 19.5469 17.8594 19.5469 17.918C19.5469 17.9492 19.5391 17.9883 19.5234 18.0352C18.8594 18.0117 18.1797 18 17.4844 18C16.7812 18 16.1016 18.0117 15.4453 18.0352C15.4297 17.9883 15.4219 17.9492 15.4219 17.918C15.4219 17.8516 15.4297 17.7988 15.4453 17.7598C15.5625 17.748 15.6562 17.7383 15.7266 17.7305C15.7969 17.7227 15.8926 17.709 16.0137 17.6895C16.1387 17.6699 16.2383 17.6484 16.3125 17.625C16.3906 17.5977 16.4707 17.5645 16.5527 17.5254C16.6348 17.4863 16.6953 17.4395 16.7344 17.3848C16.7773 17.3301 16.7988 17.2676 16.7988 17.1973C16.8457 15.9746 16.8691 14.7422 16.8691 13.5C16.8691 12.2344 16.8496 11.1426 16.8105 10.2246C16.8066 10.123 16.7617 10.0371 16.6758 9.9668C16.5898 9.89258 16.4648 9.83594 16.3008 9.79688C16.1406 9.75781 16.0039 9.73047 15.8906 9.71484C15.7812 9.69531 15.6367 9.67773 15.457 9.66211C15.4414 9.5918 15.4336 9.54297 15.4336 9.51562C15.4336 9.47656 15.4414 9.43359 15.457 9.38672Z" fill="#DDDDDD"/>
<path d="M4.0293 7.2334C5.13281 7.27246 6.00195 7.29199 6.63672 7.29199C7.55957 7.29199 8.38477 7.27246 9.1123 7.2334C9.13184 7.31152 9.1416 7.36523 9.1416 7.39453C9.1416 7.44824 9.13184 7.50928 9.1123 7.57764C8.46777 7.59717 8.03076 7.646 7.80127 7.72412C7.57666 7.79736 7.46436 7.92676 7.46436 8.1123C7.46436 8.11719 7.49854 8.23926 7.56689 8.47852L10.6138 15.5537H10.687L13.5435 8.3833C13.5728 8.31006 13.5874 8.21484 13.5874 8.09766C13.5874 7.93652 13.4995 7.82178 13.3237 7.75342C13.1479 7.68506 12.8452 7.62646 12.4155 7.57764C12.396 7.47021 12.3862 7.4043 12.3862 7.37988C12.3862 7.34082 12.396 7.29199 12.4155 7.2334C13.0454 7.2627 13.6143 7.27734 14.1221 7.27734C14.6787 7.27734 15.2354 7.2627 15.792 7.2334C15.8115 7.29199 15.8213 7.34082 15.8213 7.37988C15.8213 7.45801 15.8115 7.52393 15.792 7.57764C15.4258 7.61182 15.1206 7.6875 14.8765 7.80469C14.6372 7.91699 14.4517 8.10986 14.3198 8.3833L10.3574 18.2124H10.0132L5.75781 8.47852C5.5332 7.96582 4.95703 7.66553 4.0293 7.57764C4.00977 7.48975 4 7.42871 4 7.39453C4 7.3457 4.00977 7.29199 4.0293 7.2334Z" fill="#222222"/>
<path d="M4.0293 7.2334C5.13281 7.27246 6.00195 7.29199 6.63672 7.29199C7.55957 7.29199 8.38477 7.27246 9.1123 7.2334C9.13184 7.31152 9.1416 7.36523 9.1416 7.39453C9.1416 7.44824 9.13184 7.50928 9.1123 7.57764C8.46777 7.59717 8.03076 7.646 7.80127 7.72412C7.57666 7.79736 7.46436 7.92676 7.46436 8.1123C7.46436 8.11719 7.49854 8.23926 7.56689 8.47852L10.6138 15.5537H10.687L13.5435 8.3833C13.5728 8.31006 13.5874 8.21484 13.5874 8.09766C13.5874 7.93652 13.4995 7.82178 13.3237 7.75342C13.1479 7.68506 12.8452 7.62646 12.4155 7.57764C12.396 7.47021 12.3862 7.4043 12.3862 7.37988C12.3862 7.34082 12.396 7.29199 12.4155 7.2334C13.0454 7.2627 13.6143 7.27734 14.1221 7.27734C14.6787 7.27734 15.2354 7.2627 15.792 7.2334C15.8115 7.29199 15.8213 7.34082 15.8213 7.37988C15.8213 7.45801 15.8115 7.52393 15.792 7.57764C15.4258 7.61182 15.1206 7.6875 14.8765 7.80469C14.6372 7.91699 14.4517 8.10986 14.3198 8.3833L10.3574 18.2124H10.0132L5.75781 8.47852C5.5332 7.96582 4.95703 7.66553 4.0293 7.57764C4.00977 7.48975 4 7.42871 4 7.39453C4 7.3457 4.00977 7.29199 4.0293 7.2334Z" fill="#DDDDDD"/>
<g opacity="0.4">
<path d="M70.4002 9.80025C70.4002 9.82235 70.445 9.84025 70.5002 9.84025C70.5554 9.84025 70.6002 9.82235 70.6002 9.80025C70.6002 9.77816 70.5554 9.76025 70.5002 9.76025C70.445 9.76025 70.4002 9.77816 70.4002 9.80025Z" fill="#8B4513"/>
<path d="M69.4203 10.6004C69.4203 10.618 69.4561 10.6324 69.5003 10.6324C69.5444 10.6324 69.5803 10.618 69.5803 10.6004C69.5803 10.5827 69.5444 10.5684 69.5003 10.5684C69.4561 10.5684 69.4203 10.5827 69.4203 10.6004Z" fill="#8B4513"/>
<path d="M70.88 11.4005C70.88 11.427 70.9337 11.4485 71 11.4485C71.0663 11.4485 71.12 11.427 71.12 11.4005C71.12 11.374 71.0663 11.3525 71 11.3525C70.9337 11.3525 70.88 11.374 70.88 11.4005Z" fill="#8B4513"/>
<path d="M69.9097 12.2006C69.9097 12.2204 69.95 12.2366 69.9997 12.2366C70.0494 12.2366 70.0897 12.2204 70.0897 12.2006C70.0897 12.1807 70.0494 12.1646 69.9997 12.1646C69.95 12.1646 69.9097 12.1807 69.9097 12.2006Z" fill="#8B4513"/>
<path d="M69.8898 10.2002C69.8898 10.2246 69.9391 10.2442 69.9998 10.2442C70.0606 10.2442 70.1098 10.2246 70.1098 10.2002C70.1098 10.1759 70.0606 10.1562 69.9998 10.1562C69.9391 10.1562 69.8898 10.1759 69.8898 10.2002Z" fill="#8B4513"/>
<path d="M70.4304 11.0002C70.4304 11.0156 70.4617 11.0282 70.5004 11.0282C70.539 11.0282 70.5704 11.0156 70.5704 11.0002C70.5704 10.9847 70.539 10.9722 70.5004 10.9722C70.4617 10.9722 70.4304 10.9847 70.4304 11.0002Z" fill="#8B4513"/>
<path d="M69.4003 11.8003C69.4003 11.8223 69.4451 11.8403 69.5003 11.8403C69.5556 11.8403 69.6003 11.8223 69.6003 11.8003C69.6003 11.7782 69.5556 11.7603 69.5003 11.7603C69.4451 11.7603 69.4003 11.7782 69.4003 11.8003Z" fill="#8B4513"/>
</g>
<path d="M18.5 6.86622C18.5 7.4185 18.0523 7.86622 17.5 7.86622C16.9477 7.86622 16.5 7.4185 16.5 6.86622C16.5 6.31393 16.9477 5.86622 17.5 5.86622C18.0523 5.86622 18.5 6.31393 18.5 6.86622Z" fill="#D9D9D9"/>
</svg>
