<svg width="151" height="173" viewBox="0 0 151 173" fill="none" xmlns="http://www.w3.org/2000/svg">
<path d="M148.514 112.563C148.514 144.207 121.589 170.018 88.1721 170.018C54.7555 170.018 27.8298 144.207 27.8298 112.563C27.8298 80.9201 54.7555 55.1082 88.1721 55.1082C121.589 55.1082 148.514 80.9201 148.514 112.563Z" fill="#722F37" stroke="#1A3D6E" stroke-width="4"/>
<path d="M88.1721 165.024C118.552 165.024 143.18 141.536 143.18 112.563C143.18 83.5903 118.552 60.103 88.1721 60.103C57.792 60.103 33.1642 83.5903 33.1642 112.563C33.1642 141.536 57.792 165.024 88.1721 165.024Z" stroke="#F1F1F1" stroke-width="1.34359" stroke-dasharray="2.02 2.02"/>
<path d="M81.1 50V70.1818L77.4 74.2182V82.2909L70 98.4364V154.945C70 163.018 107 163.018 107 154.945V98.4364L99.6 82.2909V74.2182L95.9 70.1818V50H81.1Z" fill="#1A3D6E"/>
<path opacity="0.2" d="M83.3291 67.685V83.303L80.0539 89.5502V139.528C80.0539 142.651 86.6044 142.651 86.6044 139.528V67.685" fill="#F1F1F1"/>
<path d="M95.5065 49.6109H80.8377V70.595H95.5065V49.6109Z" fill="#1A3D6E"/>
<path d="M83.038 46.1135V49.6109H93.3061V46.1135C93.3061 44.0151 83.038 44.0151 83.038 46.1135Z" fill="#85434B"/>
<path d="M35.0444 113.128C36.8676 112.342 38.2931 111.706 39.321 111.22C40.8153 110.513 42.1334 109.85 43.2752 109.233C43.3794 109.338 43.4451 109.412 43.4723 109.457C43.5221 109.54 43.563 109.641 43.5948 109.76C42.5693 110.284 41.907 110.694 41.6079 110.989C41.3122 111.274 41.2505 111.558 41.4228 111.842C41.4273 111.85 41.596 112.011 41.9288 112.325L53.4316 120.83L53.5502 120.774L51.5181 107.599C51.4976 107.464 51.4329 107.307 51.3241 107.128C51.1745 106.881 50.9256 106.772 50.5775 106.802C50.2294 106.832 49.6848 106.975 48.9437 107.229C48.8123 107.079 48.7353 106.986 48.7126 106.949C48.6764 106.889 48.6468 106.806 48.6241 106.702C49.6712 106.264 50.6059 105.85 51.4282 105.461C52.3296 105.035 53.2173 104.586 54.0915 104.114C54.1775 104.189 54.2387 104.256 54.2749 104.316C54.3475 104.436 54.3929 104.544 54.4111 104.642C53.8498 104.975 53.426 105.324 53.1394 105.691C52.8563 106.046 52.7349 106.484 52.7753 107.004L55.485 125.099L54.9276 125.363L38.9994 113.711C38.1597 113.098 36.9479 113.079 35.364 113.656C35.2508 113.536 35.1783 113.45 35.1466 113.397C35.1013 113.323 35.0672 113.233 35.0444 113.128Z" fill="white"/>
<path d="M65.0619 101.691C67.0062 101.414 68.5122 101.179 69.5799 100.988C70.6476 100.797 72.1379 100.494 74.051 100.081C74.1167 100.211 74.1555 100.302 74.1672 100.353C74.1887 100.447 74.1959 100.556 74.1889 100.682C73.8006 100.787 73.4865 100.883 73.2466 100.97C73.0133 101.048 72.7257 101.161 72.3836 101.311C72.0501 101.46 71.8073 101.632 71.655 101.828C71.5008 102.016 71.4448 102.221 71.487 102.444C72.0401 105.363 72.6031 108.071 73.1761 110.569C73.5946 112.394 74.1867 114.76 74.9522 117.667C75.0117 117.888 75.1547 118.062 75.3813 118.19C75.6059 118.309 75.9045 118.38 76.2771 118.402C76.6583 118.422 76.9743 118.432 77.2252 118.432C77.4827 118.421 77.8134 118.398 78.2173 118.361C78.2752 118.457 78.3188 118.569 78.3482 118.697C78.3638 118.765 78.3661 118.853 78.3552 118.962C76.8797 119.173 75.3756 119.416 73.843 119.69C72.2932 119.968 70.8008 120.262 69.366 120.572C69.3081 120.476 69.2714 120.394 69.2557 120.325C69.2225 120.181 69.2133 120.062 69.2282 119.971C69.4806 119.899 69.6824 119.841 69.8334 119.796C69.9845 119.751 70.1886 119.683 70.4458 119.593C70.7115 119.501 70.9203 119.415 71.0722 119.334C71.2307 119.244 71.3906 119.14 71.5518 119.022C71.7131 118.904 71.8231 118.778 71.8818 118.643C71.9491 118.507 71.9652 118.362 71.93 118.209C71.4212 115.522 70.8558 112.822 70.2339 110.111C69.6002 107.349 69.0105 104.974 68.4648 102.985C68.4054 102.765 68.2633 102.595 68.0387 102.476C67.8121 102.348 67.5082 102.274 67.127 102.253C66.7545 102.231 66.4394 102.225 66.1819 102.236C65.931 102.237 65.6036 102.255 65.1997 102.292C65.1301 102.145 65.0884 102.041 65.0747 101.982C65.0552 101.896 65.0509 101.8 65.0619 101.691Z" fill="white"/>
<path d="M87.6428 98.7533C89.0639 98.9495 90.8636 99.1442 93.0418 99.3373C98.3277 107.584 101.173 111.98 101.577 112.525C101.983 113.062 102.186 113.33 102.186 113.33L102.29 113.339C102.515 111.673 102.685 110.332 102.8 109.315C103.028 107.307 103.252 104.944 103.473 102.224C103.544 101.441 102.632 100.877 100.734 100.533C100.721 100.339 100.717 100.22 100.722 100.176C100.73 100.107 100.757 100.021 100.804 99.9202C102.201 100.097 103.44 100.233 104.52 100.329C105.217 100.391 106.388 100.468 108.032 100.561C108.055 100.668 108.062 100.757 108.054 100.826C108.038 100.966 108.008 101.081 107.962 101.174C106.034 101.178 105.017 101.571 104.911 102.352C104.497 105.063 104.141 107.74 103.841 110.382C103.382 114.423 103.08 117.469 102.935 119.52L102.697 119.525L91.516 102.428L91.3853 102.417C91.0774 104.663 90.7932 106.934 90.5327 109.228C90.3037 111.245 90.0799 113.604 89.8611 116.306C89.7887 117.098 90.6968 117.666 92.5852 118.009C92.612 118.161 92.6204 118.28 92.6106 118.367C92.6007 118.454 92.5691 118.539 92.5156 118.622C91.1362 118.447 89.9018 118.311 88.8127 118.215C88.1157 118.153 86.9451 118.075 85.3011 117.982C85.2674 117.892 85.2555 117.803 85.2654 117.716C85.2822 117.568 85.3173 117.453 85.3707 117.37C87.317 117.358 88.3346 116.961 88.4234 116.179C88.8359 113.476 89.1921 110.804 89.4921 108.162C89.8177 105.293 90.0656 102.8 90.2357 100.682C89.5758 99.9826 88.6884 99.5439 87.5732 99.366C87.5338 99.2484 87.519 99.1461 87.5289 99.0592C87.5437 98.9289 87.5817 98.8269 87.6428 98.7533Z" fill="white"/>
<path d="M131.59 107.905C132.204 108.184 132.813 108.537 133.42 108.966C134.034 109.398 134.591 109.904 135.089 110.485C135.599 111.061 136.025 111.713 136.367 112.442C136.72 113.167 136.939 113.959 137.022 114.819C137.106 115.679 137.03 116.605 136.795 117.598C136.567 118.594 136.126 119.655 135.471 120.782C134.811 121.916 134.09 122.86 133.309 123.614C132.532 124.36 131.724 124.953 130.883 125.394C130.048 125.826 129.193 126.127 128.32 126.294C127.46 126.457 126.612 126.521 125.777 126.486C124.954 126.446 124.159 126.324 123.392 126.119C122.621 125.922 121.917 125.678 121.28 125.389C120.675 125.114 120.065 124.76 119.45 124.328C118.839 123.907 118.277 123.412 117.762 122.843C117.251 122.267 116.817 121.62 116.459 120.903C116.113 120.182 115.892 119.393 115.796 118.537C115.713 117.677 115.785 116.749 116.012 115.753C116.252 114.753 116.701 113.686 117.361 112.552C118.039 111.388 118.779 110.428 119.58 109.674C120.386 108.912 121.213 108.313 122.061 107.876C122.917 107.443 123.781 107.152 124.653 107.004C125.538 106.851 126.391 106.795 127.214 106.834C128.045 106.877 128.83 106.999 129.568 107.201C130.319 107.399 130.993 107.634 131.59 107.905ZM131.056 108.695C130.307 108.354 129.574 108.169 128.856 108.139C128.138 108.11 127.444 108.196 126.773 108.397C126.106 108.591 125.467 108.884 124.857 109.276C124.25 109.66 123.68 110.104 123.146 110.606C122.62 111.113 122.132 111.656 121.684 112.236C121.243 112.82 120.854 113.403 120.515 113.985C120.189 114.545 119.89 115.145 119.618 115.786C119.346 116.427 119.13 117.084 118.97 117.757C118.814 118.422 118.729 119.086 118.716 119.749C118.711 120.416 118.81 121.049 119.015 121.649C119.22 122.249 119.543 122.802 119.983 123.308C120.436 123.81 121.045 124.235 121.809 124.582C122.558 124.923 123.289 125.111 124.002 125.149C124.72 125.179 125.412 125.097 126.079 124.902C126.75 124.701 127.385 124.406 127.983 124.018C128.594 123.627 129.16 123.181 129.682 122.682C130.216 122.18 130.701 121.64 131.137 121.064C131.581 120.491 131.971 119.918 132.305 119.343C132.644 118.761 132.95 118.14 133.223 117.48C133.504 116.824 133.721 116.158 133.873 115.481C134.033 114.808 134.113 114.142 134.114 113.483C134.12 112.816 134.018 112.187 133.808 111.595C133.604 110.995 133.279 110.446 132.834 109.947C132.389 109.449 131.796 109.031 131.056 108.695Z" fill="white"/>
<path opacity="0.1" d="M101.889 95.7974C91.2301 96.4947 85.2184 96.4769 74.5951 95.7974V125.693C85.0472 128.876 90.8852 128.861 101.889 125.693V95.7974Z" fill="#F1F1F1"/>
</svg>
